<?xml version="1.0" encoding="utf-8"?>
<!-- Generator: Adobe Illustrator 21.1.0, SVG Export Plug-In . SVG Version: 6.00 Build 0)  -->
<svg version="1.1" id="Layer_1" xmlns="http://www.w3.org/2000/svg" xmlns:xlink="http://www.w3.org/1999/xlink" x="0px" y="0px"
	 viewBox="0 0 361.2 71" style="enable-background:new 0 0 361.2 71;" xml:space="preserve">
<style type="text/css">
	.st0{clip-path:url(#SVGID_2_);fill:#001E62;}
	.st1{clip-path:url(#SVGID_2_);fill:#FFFFFF;}
	.st2{clip-path:url(#SVGID_2_);fill:#D50032;}
</style>
<g>
	<defs>
		<rect id="SVGID_1_" x="1.5" y="1.2" width="358.3" height="68.7"/>
	</defs>
	<clipPath id="SVGID_2_">
		<use xlink:href="#SVGID_1_"  style="overflow:visible;"/>
	</clipPath>
	<path class="st0" d="M94.3,21c0,1.2-0.1,1.5-0.2,1.9l0,0C93.7,23.6,93,24,92,24c-1.1,0-1.8-0.4-2.1-1.1c-0.2-0.3-0.2-0.7-0.2-1.9
		v-6.8h-2.2V21c0,1.6,0.2,2.4,0.6,3.2c0.7,1.2,2.1,1.8,3.9,1.8c1.8,0,3.2-0.6,3.9-1.8c0.5-0.8,0.6-1.6,0.6-3.2v-6.8h-2.2V21z"/>
	<path class="st0" d="M110.8,18.2c0,1.1,0,2.4,0,3.3c0,0.2,0,0.3,0,0.5c-0.2-0.3-0.5-0.8-0.7-1.1l-4.4-6.5l0,0h-2v11.6h2.2V22
		c0-1.6,0-3.1,0-3.9c0,0,0,0,0,0c0.1,0.2,0.3,0.5,0.5,0.8l4.5,6.9l0,0h2V14.2h-2.2V18.2z"/>
	<rect x="120.4" y="14.2" class="st0" width="2.2" height="11.6"/>
	<path class="st0" d="M134.3,22l-0.3,1.1c-0.1-0.3-0.2-0.8-0.3-1.1l-2.3-7.8H129l3.6,11.6l0,0.1h2.6l3.8-11.6h-2.3L134.3,22z"/>
	<polygon class="st0" points="147.3,20.9 152.7,20.9 152.7,18.9 147.3,18.9 147.3,16.2 153.2,16.2 153.2,14.2 145,14.2 145,25.9 
		153.7,25.9 153.7,23.9 147.3,23.9 	"/>
	<path class="st0" d="M167.6,20.7c1-0.7,1.6-1.7,1.6-2.9c0-1.3-0.6-2.4-1.7-3c-0.9-0.5-2-0.5-2.9-0.5h-4.3v11.6h2.2v-4.6h1.9
		l2.7,4.6h2.6l-2.9-4.8C167.1,21,167.4,20.8,167.6,20.7 M162.5,16.2h2.1c0.8,0,1.2,0.1,1.6,0.2c0.5,0.2,0.7,0.7,0.7,1.3
		c0,0.6-0.3,1.1-0.7,1.3c-0.4,0.2-0.8,0.2-1.6,0.2h-2.1V16.2z"/>
	<path class="st0" d="M181.1,19.1l-1.4-0.3c-1.4-0.3-1.8-0.6-1.8-1.3c0-0.9,0.8-1.4,2-1.4c1.1,0,2.2,0.5,2.9,1.3l0.1,0.1l1.7-1.4
		l-0.1-0.1c-0.8-0.9-2.2-1.9-4.5-1.9c-2.6,0-4.4,1.5-4.4,3.5c0,2.3,1.9,3,3.5,3.4l1.5,0.3c1.2,0.2,1.9,0.6,1.9,1.4
		c0,0.9-0.8,1.4-2.2,1.4c-1.6,0-2.8-0.9-3.3-1.7l-0.1-0.1l-1.9,1.3l0.1,0.1c0.8,1.1,2.6,2.4,5.1,2.4c2.8,0,4.7-1.4,4.7-3.6
		C184.8,20.4,183.4,19.6,181.1,19.1"/>
	<rect x="191.5" y="14.2" class="st0" width="2.2" height="11.6"/>
	<polygon class="st0" points="200,16.2 203.3,16.2 203.3,25.9 205.5,25.9 205.5,16.2 208.8,16.2 208.8,14.2 200,14.2 	"/>
	<polygon class="st0" points="219.2,19 216.3,14.2 213.7,14.2 218,21.1 218,25.9 220.2,25.9 220.2,21.1 224.7,14.2 222.1,14.2 	"/>
	<path class="st0" d="M242.7,14c-3.3,0-5.5,2.4-5.5,6c0,3.7,2.1,6,5.5,6c3.4,0,5.5-2.3,5.5-6C248.2,16.5,246,14,242.7,14 M242.7,16
		c1.9,0,3.1,1.5,3.1,4c0,2.5-1.2,4-3.1,4c-1.9,0-3.1-1.5-3.1-4C239.6,17.6,240.8,16,242.7,16"/>
	<polygon class="st0" points="262,16.2 262,14.2 254.4,14.2 254.4,25.9 256.6,25.9 256.6,21 261.8,21 261.8,19 256.6,19 256.6,16.2 
			"/>
	<rect x="87.4" y="35.5" class="st0" width="4.7" height="21.1"/>
	<polygon class="st0" points="101.8,35.5 101.8,52.4 110.3,52.4 110.3,56.6 97.1,56.6 97.1,35.5 	"/>
	<polygon class="st0" points="118.1,35.5 118.1,52.4 126.5,52.4 126.5,56.6 113.4,56.6 113.4,35.5 	"/>
	<rect x="129.7" y="35.5" class="st0" width="4.7" height="21.1"/>
	<path class="st0" d="M149.2,43.8c1.7,2.8,3.1,5.4,3.1,5.4h0c0,0-0.2-4.2-0.2-6.6v-7h4.6v21.1h-4.7l-5-8.1c-1.2-2-3.2-5.7-3.2-5.7h0
		c0,0,0.2,3.5,0.2,6.9v6.9h-4.7V35.5h4.7L149.2,43.8z"/>
	<path class="st0" d="M171,35.2c6.2,0,10.2,4.4,10.2,10.9c0,6.5-3.7,10.9-10.2,10.9c-6.4,0-10.2-4.5-10.2-10.9
		C160.8,39.6,164.8,35.2,171,35.2 M171,53.1c3.6,0,5.5-2.6,5.5-7c0-4.4-2-7.1-5.5-7.1c-3.5,0-5.5,2.7-5.5,7.1
		C165.5,50.5,167.4,53.1,171,53.1"/>
	<rect x="185.3" y="35.5" class="st0" width="4.7" height="21.1"/>
	<path class="st0" d="M207.9,41.3c-1.5-1.4-3.4-2.3-5.5-2.3c-2,0-3.3,0.8-3.3,2.1c0,1.4,1,1.9,2.9,2.3l3.4,0.7
		c3.9,0.8,6.4,2.3,6.4,6c0,4.4-3.9,6.8-8.9,6.8c-4.9,0-8.2-2.6-9.5-4.4l3.3-2.8c1.3,1.7,3.5,3.3,6.4,3.3c2.5,0,3.9-1,3.9-2.5
		c0-1.5-1.2-1.9-3.2-2.2l-2.7-0.5c-3.8-0.7-6.8-2.1-6.8-6.3c0-3.8,3.5-6.4,8.1-6.4c3.7,0,6.7,1.4,8.5,3.3L207.9,41.3z"/>
	<path class="st0" d="M241.2,52c-1.6,3.1-4.3,5-8.6,5c-6.3,0-10.1-4.5-10.1-10.9c0-6.5,4-10.9,10.1-10.9c4.7,0,7.4,2.5,8.7,5.4
		l-3.9,1.6c-0.9-2.1-2.5-3.2-4.7-3.2c-3.5,0-5.5,2.7-5.5,7.1c0,4.4,1.9,7,5.5,7c2.2,0,3.8-1,4.7-2.9L241.2,52z"/>
	<polygon class="st0" points="249.5,47.9 249.5,56.6 244.8,56.6 244.8,35.5 249.5,35.5 249.5,43.7 257.3,43.7 257.3,35.5 262,35.5 
		262,56.6 257.3,56.6 257.3,47.9 	"/>
	<rect x="267" y="35.5" class="st0" width="4.7" height="21.1"/>
	<path class="st0" d="M294.4,52c-1.6,3.1-4.3,5-8.6,5c-6.3,0-10.1-4.5-10.1-10.9c0-6.5,4-10.9,10.1-10.9c4.7,0,7.4,2.5,8.7,5.4
		l-3.9,1.6c-0.9-2.1-2.5-3.2-4.7-3.2c-3.5,0-5.5,2.7-5.5,7.1c0,4.4,1.9,7,5.5,7c2.2,0,3.8-1,4.7-2.9L294.4,52z"/>
	<path class="st0" d="M300.9,56.6H296l7.1-21.1h5.7l7,21.1h-5l-1.2-4.2h-7.4L300.9,56.6z M306.6,42.6c-0.4-1.3-0.7-2.7-0.7-2.7h0
		c0,0-0.4,1.4-0.8,2.8l-1.8,5.9h5.1L306.6,42.6z"/>
	<path class="st0" d="M327.1,35.2c4.7,0,7.4,2.5,8.7,5.4l-3.9,1.6c-0.9-2.1-2.5-3.2-4.7-3.2c-3.5,0-5.5,2.7-5.5,7.1
		c0,4.5,2,7.2,5.5,7.2c3.1,0,4.5-2,4.7-4.5h-6v-4.1h10v12h-4.1v-1.9c-0.9,1.1-2.9,2.2-5.5,2.2c-5.8,0-9.3-4.5-9.3-10.9
		C317,39.6,321,35.2,327.1,35.2"/>
	<path class="st0" d="M349.6,35.2c6.2,0,10.2,4.4,10.2,10.9c0,6.5-3.7,10.9-10.2,10.9c-6.4,0-10.2-4.5-10.2-10.9
		C339.4,39.6,343.4,35.2,349.6,35.2 M349.6,53.1c3.6,0,5.5-2.6,5.5-7c0-4.4-2-7.1-5.5-7.1c-3.5,0-5.5,2.7-5.5,7.1
		C344.1,50.5,346,53.1,349.6,53.1"/>
	<rect x="33.2" y="25.3" class="st1" width="6.7" height="22.4"/>
	<path class="st1" d="M22.4,38.7c0,1.5-0.2,2.5-0.8,3.2c-0.5,0.6-1.4,0.9-2.6,0.9c-1.3,0-2.1-0.3-2.6-0.9c-0.6-0.7-0.8-1.6-0.8-3.2
		V25.3H8.9v13.2c0,3.1,0.3,4.6,1.2,6.2c1.5,2.5,5.4,3.4,8.9,3.4c3.5,0,7.4-1,8.9-3.4c0.9-1.5,1.2-3,1.2-6.2V25.3h-6.7V38.7z"/>
	<path class="st1" d="M54.4,42.7c-2.9,0-4.3-2.3-4.3-6.2c0-3.9,1.5-6.3,4.3-6.3c2.1,0,3.3,1.3,3.9,3.5l5.8-2.8c-1.1-2.9-4.3-6-9.6-6
		c-7,0-11.3,4.7-11.3,11.6c0,6.8,4,11.6,11.1,11.6c5.1,0,8.3-2.5,9.9-6.1l-6.1-2.2C57.5,41.6,56.4,42.7,54.4,42.7"/>
	<path class="st2" d="M35.8,1.2c-19,0-34.3,15.4-34.3,34.3c0,19,15.4,34.3,34.3,34.3c19,0,34.3-15.4,34.3-34.3
		C70.2,16.5,54.8,1.2,35.8,1.2 M16.4,41.9c0.5,0.6,1.4,0.9,2.6,0.9c1.2,0,2.1-0.3,2.6-0.9c0.6-0.7,0.8-1.6,0.8-3.2V25.3h6.7v13.2
		c0,3.1-0.3,4.6-1.2,6.2c-1.5,2.5-5.4,3.4-8.9,3.4c-3.5,0-7.4-1-8.9-3.4c-0.9-1.5-1.2-3-1.2-6.2V25.3h6.7v13.4
		C15.7,40.2,15.9,41.2,16.4,41.9 M33.2,25.3H40v22.4h-6.7V25.3z M54.4,48.1c-7.1,0-11.1-4.7-11.1-11.6c0-6.9,4.3-11.6,11.3-11.6
		c5.3,0,8.5,3.1,9.6,6l-5.8,2.8c-0.6-2.2-1.8-3.5-3.9-3.5c-2.9,0-4.3,2.4-4.3,6.3c0,3.9,1.5,6.2,4.3,6.2c2,0,3.1-1.1,3.8-2.8
		l6.1,2.2C62.7,45.7,59.5,48.1,54.4,48.1"/>
</g>
</svg>
